<?xml version="1.0" encoding="utf-8"?>
<!-- Generator: Adobe Illustrator 27.8.1, SVG Export Plug-In . SVG Version: 6.00 Build 0)  -->
<svg version="1.1" id="Lag_1" xmlns="http://www.w3.org/2000/svg" xmlns:xlink="http://www.w3.org/1999/xlink" x="0px" y="0px"
	 viewBox="0 0 112 112" style="enable-background:new 0 0 112 112;" xml:space="preserve">
<style type="text/css">
	.st0{fill:#FFFFFF;}
	.st1{fill:none;}
	.st2{fill-rule:evenodd;clip-rule:evenodd;}
</style>
<rect class="st0" width="112" height="112"/>
<g>
	<g>
		<path class="st1" d="M15.5,56c0-16.7,0-33.3,0-50c0-1,0.2-1.2,1.2-1.2c26.2,0,52.5,0,78.7,0c1,0,1.2,0.2,1.2,1.2
			c0,33.3,0,66.6,0,99.9c0,1-0.2,1.2-1.2,1.2c-26.2,0-52.5,0-78.7,0c-1,0-1.2-0.2-1.2-1.2C15.5,89.3,15.5,72.7,15.5,56z M60.9,7.1
			c-5.5,0.1-10,1-14.4,2.8c-2.7,1.1-5.5,2.1-8,3.8c-4.6,3.2-8.5,7.1-12,11.4c-2.7,3.3-5.1,6.9-6.6,11c-2.5,7-3.2,14.1-2.6,21.4
			c0.3,3.9,1.2,7.7,2.7,11.4c3.2,7.8,7.6,14.6,14.1,20.1c3.4,2.8,6.8,5.5,10.7,7.5c10,5.3,20.8,7.6,31.9,8.8
			c1.7,0.2,2.8-0.5,3.4-2.1c0.8-2.2,1.7-4.3,2.7-6.3c2.9-5.9,4.2-12.2,3.4-18.8c-0.7-5.2-2.5-10.1-5.9-14.2c-0.8-1-0.6-1.3,0.3-1.9
			c3.1-1.9,5.6-4.4,7.8-7.3c4.5-5.9,6.9-12.3,6.3-19.9c-0.5-6.2-3.2-11.2-7.2-15.6C80.2,11,70.8,7.7,60.9,7.1z"/>
		<path class="st2" d="M60.9,7.1c9.8,0.6,19.3,3.9,26.6,12c4,4.4,6.7,9.5,7.2,15.6c0.6,7.6-1.8,14-6.3,19.9
			c-2.2,2.9-4.8,5.3-7.8,7.3c-0.9,0.6-1,0.9-0.3,1.9c3.3,4.1,5.2,8.9,5.9,14.2c0.8,6.6-0.5,12.9-3.4,18.8c-1,2.1-1.9,4.2-2.7,6.3
			c-0.6,1.6-1.7,2.3-3.4,2.1c-11.1-1.2-21.9-3.5-31.9-8.8c-3.9-2.1-7.3-4.7-10.7-7.5c-6.5-5.4-10.9-12.3-14.1-20.1
			c-1.5-3.6-2.3-7.5-2.7-11.4C16.8,50.2,17.5,43,20,36.1c1.5-4.1,3.9-7.7,6.6-11c3.5-4.3,7.4-8.2,12-11.4c2.5-1.7,5.2-2.7,8-3.8
			C50.9,8.1,55.4,7.2,60.9,7.1z M85.3,81.4c0-1.5,0-3-0.4-4.5c-0.9-4.3-2.4-8.3-5.1-11.9c-0.9-1.2-1.7-1.7-3.3-1.2
			c-2.1,0.7-4.4,1.1-6.6,1c-4.6-0.2-8.9-1.6-12.7-4.5c-5.8-4.5-9.9-14.1-6.4-21.5c0.9-2,0.6-4-0.4-6c-1.6-3-4.1-4.7-7.2-5.6
			c-5.1-1.5-9.9-0.5-14.7,1.5c-3.3,1.4-5.8,3.5-7.2,6.9c-3,7.6-3.9,15.5-2.8,23.5c1.1,8,4.5,15,9.2,21.5c3.7,5,8.4,8.9,13.4,12.5
			c5.5,4,11.9,6,18.3,7.9c5.3,1.6,10.6,2.4,16.1,3c2.5,0.3,2.9,0,3.7-2.3c0.6-1.9,1.5-3.6,2.4-5.4C84.1,91.6,85.2,86.6,85.3,81.4z
			 M25.4,28.8c4.9-2.1,9.5-3.7,14.7-3.6c5.1,0.2,10.5,3.5,12.1,8.5c0.2,0.5,0.1,1.3,0.8,1.3c0.6,0,0.9-0.7,1.2-1.2
			c2.7-4.5,0.4-8.8-3.1-11.7c-2.8-2.4-6.2-3.1-9.8-3.1c-4.6,0-8.8,0.9-11.9,4.7C28,25.2,26.8,26.9,25.4,28.8z M34.4,18.6
			c3.1-0.7,6-1.1,9.2-0.8c5.8,0.6,13.3,5.6,13,13.1c0,0.8,0.2,1,1,0.5c3-1.8,5.2-6,3.6-9.5c-1-2.2-2.1-4.1-4-5.6
			C52.9,13.1,48.1,12,43,13C39.5,13.6,37.1,16.4,34.4,18.6z M46,11.4c4.4,0.4,8.2,1.1,11.5,3.7c3.1,2.5,5.3,5.5,5.2,9.8
			c0,1.8-0.7,3.3-1.2,4.9c4.9-0.5,7.9-3.8,7.4-9.1c-0.3-2.4-1.1-4.7-2.8-6.5c-3-3.5-7.8-6.9-13.6-5C50.5,9.9,48.5,10.4,46,11.4z
			 M66.9,29.4c3.4,1.5,7.4-0.2,8.8-4c1.8-5.2,0.2-11-4.5-14.7c-2.6-2.1-6.1-2-9.2-2.3c-0.4,0-0.8-0.2-1.2,0.2
			C69.3,13.1,73.5,22.6,66.9,29.4z M73,10.8c3.5,3.9,5.1,8.1,4.1,13.1c-0.5,2.6-1.6,4.9-4.2,6.1c-1.3,0.6-1.4,1.1,0,2
			c1.5,0.9,3.1,0.9,4.7,0.4c3.8-1.2,5.4-4.3,6.1-7.9c0.8-3.9-1.3-9.2-4.4-10.8C77.2,12.6,75.3,11.6,73,10.8z M83.6,17.2
			c1.3,2.3,1.1,4.8,0.9,7.2c-0.3,4.4-3.7,8.4-8,9.2c-1,0.2-1.3,0.5-0.7,1.4c1.2,2,3.4,2.7,6,1.8c4-1.4,6.1-4.5,7.2-8.4
			c0.5-1.8,0.9-3.8-0.2-5.5C87.5,20.6,85.7,18.8,83.6,17.2z M90.4,25.4c0,1.3-0.2,2.5-0.5,3.7c-1.5,5.2-6,9.5-11.8,8.9
			c-0.8-0.1-0.9,0.3-0.8,1c0.4,1.9,2.2,3.2,4.2,3.5c3.5,0.4,6.3-1,8.5-3.4c1.8-1.9,3.5-4.1,3-7.1C92.6,29.7,91.7,27.5,90.4,25.4z
			 M93.3,36.7c-0.2,0.2-0.4,0.4-0.6,0.6c-1.7,2.7-4,4.7-7.2,5.7c-2.5,0.8-5,0.8-7.4-0.7c-0.7-0.4-1,0-1,0.7
			c-0.2,1.7,0.7,2.8,2.1,3.7c3.7,2.5,9.3,0.7,12.1-2.1C93.3,42.8,94.2,39,93.3,36.7z M91.8,45.9c-0.8,0.5-1.6,0.9-2.4,1.4
			c-4.4,2.6-8.8,2.3-12.3-0.6c-1.2-1-1.4-0.9-1.9,0.6c-0.2,0.7,0,1.3,0.3,1.9c1.6,3.2,6.2,5,9.8,4.2C89.5,52.5,90.5,49.2,91.8,45.9z
			 M87,54.3c-0.4-0.2-0.6-0.1-0.9,0c-4.8,0.8-8.6-0.1-11.5-4.4c-0.3-0.5-0.3-1.4-1.2-1.1c-0.8,0.2-1.1,0.9-1.3,1.6
			c-0.3,0.8-0.1,1.6,0.2,2.4c1.5,3.6,4.5,5.1,8.1,5.5c1.5,0.1,2.9,0.2,4-1C85.4,56.3,86.2,55.3,87,54.3z M81.8,59.5
			c-2.1,0.2-3.6-0.5-5.2-1.1c-2.9-1-5.7-4.5-5.6-6.9c0-0.4,0.4-0.9-0.2-1.2c-0.5-0.2-1,0-1.4,0.3C68.6,51.2,68,51.8,68,53
			c0.1,3.8,2.3,6.3,5.4,8.1C76.5,62.8,79.1,61.8,81.8,59.5z M74.6,62.9c-2.1-0.9-3.8-1.9-5.2-3.6c-1.8-2.3-2.6-4.8-2.3-7.6
			c0.1-0.5,0.1-1.2-0.5-1.4c-0.7-0.2-1.2,0.2-1.5,0.8c-0.4,0.6-0.8,1.2-1,1.9c-1,3.3,0.2,6.1,2.3,8.4C68.5,63.8,71.4,63.6,74.6,62.9
			z M60.4,60.6c-2.6-4.6-2.3-7.6,1.2-11.7c0.4-0.4,0.8-0.9,0.4-1.5c-0.4-0.6-1-0.4-1.5-0.3c-1.4,0.4-2.4,1.4-3.3,2.5
			C53.9,53.2,55.6,59.2,60.4,60.6z M66,62.9c0-0.2,0.1-0.3,0-0.3c-3.6-3.6-4.5-7.7-2-12.3c0.3-0.6,0-0.9-0.7-0.9
			c-0.6,0-1.1,0.2-1.5,0.6c-2.5,2.1-3,5.7-1.2,8.8C61.9,60.9,63.3,62.8,66,62.9z M54.4,55.2c0.4-0.4,0.3-0.7,0.3-1.1
			c-0.1-3.6,1.9-5.9,4.7-7.7c0.5-0.3,1.5-0.4,1.1-1.3c-0.4-0.8-1.2-0.9-2.1-0.7c-2.1,0.6-3.7,1.8-4.9,3.6C52,50.6,51.7,52,54.4,55.2
			z M50.9,46.4c0.1,0.3,0.2,0.6,0.2,0.9c0.2,0.5-0.2,1.3,0.4,1.5c0.8,0.2,0.8-0.7,1.1-1.2c1.5-2.5,3.7-3.7,6.5-4.1
			c0.5-0.1,1.3,0.1,1.4-0.6c0.1-0.9-0.8-1-1.4-1.1c-2.7-0.8-6.7,1.2-7.9,3.8C51.2,45.8,51,46.1,50.9,46.4z M52.5,38.9
			c0.1,0,0.2,0.1,0.3,0.1c3.1-1.6,6.2-2.1,9.2,0.3c0.3,0.2,0.6,0.2,0.9,0c0.3-0.3,0.2-0.6,0.1-0.9c-0.3-0.9-1.1-1.3-1.7-1.7
			C58.5,34.7,53.8,34.2,52.5,38.9z M51,43.9c2.8-2.8,5.8-4,9.4-2.9c0.3,0.1,0.7-0.1,0.8-0.4c0.2-0.5-0.1-0.8-0.5-1.1
			c-1.3-1-2.9-1.1-4.3-0.8C53.1,39.4,51.1,40.4,51,43.9z M56.2,34.2c1.2,0.3,2.2,0,3.2,0.4c1.7,0.6,3.1,1.4,4.2,2.9
			c0.3,0.4,0.6,0.7,1.1,0.5c0.3-0.1,0.4-0.4,0.2-0.7c-0.8-1.9-1.9-3.4-4-4C59.3,32.6,57.7,32.7,56.2,34.2z M61,31.8
			c0.1,0.1,0.1,0.3,0.2,0.3c2.2,1,4,2.4,4.6,4.9c0.1,0.2,0.2,0.6,0.6,0.5c0.5-0.1,0.7-0.5,0.7-1c0.2-2-1.1-3.3-2.4-4.5
			C63.6,30.9,62.3,31.1,61,31.8z M68.1,37.9c2-1.2,1.4-3,1.3-4.6c-0.1-1.4-1.3-2.2-2.7-2.1c-0.8,0.1-0.9,0.4-0.4,0.9
			C67.9,33.7,68.7,35.6,68.1,37.9z M69.5,39c0.5-0.2,1-0.4,1.5-0.7c1.8-1.2,2.1-4.7,0.5-5.6c-0.2-0.1-0.5-0.2-0.8-0.2
			c-0.2,0-0.3,0.3-0.2,0.6C71.2,35.2,70.5,37.1,69.5,39z"/>
		<path class="st1" d="M85.3,81.4c-0.1,5.2-1.2,10.2-3.5,14.8c-0.9,1.8-1.8,3.5-2.4,5.4c-0.7,2.4-1.2,2.6-3.7,2.3
			c-5.4-0.6-10.8-1.5-16.1-3C53.3,99,46.9,97,41.3,93c-5-3.6-9.7-7.5-13.4-12.5c-4.8-6.4-8.1-13.5-9.2-21.5
			c-1.1-8-0.2-15.9,2.8-23.5c1.3-3.4,3.9-5.5,7.2-6.9c4.8-2,9.6-3,14.7-1.5c3.1,0.9,5.6,2.7,7.2,5.6c1,1.9,1.4,4,0.4,6
			c-3.5,7.5,0.6,17.1,6.4,21.5c3.8,2.9,8.1,4.3,12.7,4.5c2.2,0.1,4.5-0.3,6.6-1c1.5-0.5,2.4,0,3.3,1.2c2.7,3.6,4.2,7.6,5.1,11.9
			C85.3,78.4,85.4,79.9,85.3,81.4z"/>
		<path class="st1" d="M25.4,28.8c1.5-1.9,2.7-3.5,4-5.1c3.1-3.8,7.3-4.6,11.9-4.7c3.6,0,7,0.8,9.8,3.1c3.5,2.9,5.8,7.3,3.1,11.7
			c-0.3,0.5-0.6,1.2-1.2,1.2c-0.7,0-0.6-0.8-0.8-1.3c-1.5-5.1-7-8.4-12.1-8.5C34.9,25.1,30.3,26.7,25.4,28.8z"/>
		<path class="st1" d="M34.4,18.6c2.7-2.1,5-4.9,8.5-5.6c5.1-1,10,0.1,14.2,3.3c1.9,1.5,3.1,3.4,4,5.6c1.5,3.4-0.6,7.7-3.6,9.5
			c-0.8,0.5-1,0.3-1-0.5c0.4-7.5-7.2-12.5-13-13.1C40.5,17.4,37.5,17.9,34.4,18.6z"/>
		<path class="st1" d="M46,11.4c2.4-1,4.5-1.5,6.5-2.2c5.8-2,10.5,1.5,13.6,5c1.6,1.8,2.5,4.1,2.8,6.5c0.6,5.3-2.5,8.7-7.4,9.1
			c0.5-1.7,1.2-3.2,1.2-4.9c0-4.3-2.1-7.3-5.2-9.8C54.3,12.6,50.4,11.8,46,11.4z"/>
		<path class="st1" d="M66.9,29.4c6.6-6.8,2.4-16.4-6.1-20.8c0.3-0.4,0.8-0.3,1.2-0.2c3.2,0.4,6.6,0.2,9.2,2.3
			c4.7,3.7,6.3,9.5,4.5,14.7C74.3,29.2,70.3,31,66.9,29.4z"/>
		<path class="st1" d="M73,10.8c2.3,0.8,4.2,1.8,6.1,2.8c3.1,1.7,5.1,6.9,4.4,10.8c-0.7,3.6-2.3,6.7-6.1,7.9
			c-1.6,0.5-3.1,0.5-4.7-0.4c-1.3-0.8-1.2-1.4,0-2c2.6-1.2,3.7-3.5,4.2-6.1C78.1,19,76.5,14.7,73,10.8z"/>
		<path class="st1" d="M83.6,17.2c2.1,1.6,3.9,3.4,5.2,5.6c1,1.8,0.7,3.7,0.2,5.5c-1,3.9-3.1,7-7.2,8.4c-2.6,0.9-4.8,0.2-6-1.8
			c-0.6-1-0.3-1.3,0.7-1.4c4.2-0.7,7.7-4.7,8-9.2C84.7,22,85,19.5,83.6,17.2z"/>
		<path class="st1" d="M90.4,25.4c1.3,2.1,2.3,4.3,2.7,6.7c0.5,2.9-1.2,5.2-3,7.1c-2.3,2.3-5.1,3.7-8.5,3.4c-2-0.2-3.8-1.6-4.2-3.5
			c-0.2-0.7-0.1-1.1,0.8-1c5.9,0.6,10.4-3.7,11.8-8.9C90.2,27.9,90.4,26.7,90.4,25.4z"/>
		<path class="st1" d="M93.3,36.7c1,2.3,0,6-2,8c-2.8,2.8-8.4,4.6-12.1,2.1c-1.3-0.9-2.2-2-2.1-3.7c0.1-0.7,0.3-1.2,1-0.7
			c2.4,1.4,4.9,1.5,7.4,0.7c3.1-1,5.4-3,7.2-5.7C92.9,37.1,93.1,37,93.3,36.7z"/>
		<path class="st1" d="M91.8,45.9c-1.3,3.2-2.3,6.6-6.4,7.4c-3.6,0.7-8.2-1-9.8-4.2c-0.3-0.6-0.6-1.2-0.3-1.9
			c0.5-1.5,0.7-1.6,1.9-0.6c3.5,3,7.9,3.2,12.3,0.6C90.2,46.9,91,46.4,91.8,45.9z"/>
		<path class="st1" d="M87,54.3c-0.8,1-1.6,2-2.5,2.9c-1.1,1.2-2.6,1.2-4,1c-3.7-0.3-6.6-1.9-8.1-5.5c-0.3-0.8-0.5-1.6-0.2-2.4
			c0.2-0.7,0.5-1.4,1.3-1.6c0.9-0.2,0.9,0.7,1.2,1.1c2.8,4.3,6.6,5.2,11.5,4.4C86.4,54.2,86.6,54.1,87,54.3z"/>
		<path class="st1" d="M81.8,59.5c-2.7,2.3-5.3,3.4-8.4,1.6c-3.1-1.8-5.3-4.3-5.4-8.1c0-1.1,0.6-1.8,1.4-2.3
			c0.4-0.3,0.9-0.5,1.4-0.3c0.6,0.3,0.2,0.8,0.2,1.2c0,2.4,2.8,5.9,5.6,6.9C78.2,59,79.7,59.7,81.8,59.5z"/>
		<path class="st1" d="M74.6,62.9c-3.2,0.8-6,0.9-8.2-1.5c-2.1-2.4-3.3-5.2-2.3-8.4c0.2-0.7,0.6-1.3,1-1.9c0.3-0.5,0.9-1,1.5-0.8
			c0.7,0.2,0.6,0.9,0.5,1.4c-0.3,2.9,0.5,5.4,2.3,7.6C70.7,61,72.5,61.9,74.6,62.9z"/>
		<path class="st1" d="M60.4,60.6c-4.8-1.4-6.5-7.4-3.2-11c0.9-1,1.9-2.1,3.3-2.5c0.5-0.1,1.2-0.3,1.5,0.3c0.4,0.6-0.1,1-0.4,1.5
			C58.1,53,57.8,55.9,60.4,60.6z"/>
		<path class="st1" d="M66,62.9c-2.8-0.1-4.2-2-5.4-4.1c-1.8-3.1-1.3-6.7,1.2-8.8c0.5-0.4,0.9-0.6,1.5-0.6c0.7,0,1,0.3,0.7,0.9
			c-2.5,4.6-1.6,8.7,2,12.3C66.1,62.7,66.1,62.8,66,62.9z"/>
		<path class="st1" d="M54.4,55.2c-2.7-3.3-2.4-4.6-0.8-7.2c1.2-1.8,2.8-3,4.9-3.6c0.8-0.2,1.7-0.1,2.1,0.7c0.4,0.9-0.6,1-1.1,1.3
			c-2.9,1.8-4.9,4.1-4.7,7.7C54.7,54.5,54.8,54.8,54.4,55.2z"/>
		<path class="st1" d="M50.9,46.4c0.1-0.3,0.2-0.6,0.4-0.9c1.2-2.5,5.2-4.5,7.9-3.8c0.6,0.2,1.5,0.3,1.4,1.1
			c-0.1,0.7-0.9,0.5-1.4,0.6c-2.8,0.4-5,1.6-6.5,4.1c-0.3,0.5-0.3,1.4-1.1,1.2c-0.6-0.2-0.2-1-0.4-1.5C51.1,47,51,46.7,50.9,46.4z"
			/>
		<path class="st1" d="M52.5,38.9c1.3-4.7,6-4.2,8.7-2.3c0.7,0.5,1.5,0.8,1.7,1.7c0.1,0.3,0.2,0.7-0.1,0.9c-0.3,0.3-0.6,0.3-0.9,0
			c-3-2.5-6.1-1.9-9.2-0.3C52.8,39,52.6,38.9,52.5,38.9z"/>
		<path class="st1" d="M51,43.9c0-3.5,2-4.4,5.4-5.2c1.4-0.3,3-0.2,4.3,0.8c0.3,0.3,0.7,0.6,0.5,1.1c-0.2,0.3-0.5,0.5-0.8,0.4
			C56.8,39.9,53.8,41.1,51,43.9z"/>
		<path class="st1" d="M56.2,34.2c1.5-1.5,3.1-1.6,4.8-1.1c2,0.6,3.2,2.1,4,4c0.1,0.3,0,0.6-0.2,0.7c-0.5,0.3-0.9-0.1-1.1-0.5
			c-1.1-1.4-2.5-2.3-4.2-2.9C58.4,34.2,57.4,34.5,56.2,34.2z"/>
		<path class="st1" d="M61,31.8c1.3-0.7,2.5-0.9,3.7,0.2c1.3,1.2,2.6,2.5,2.4,4.5c0,0.5-0.2,0.9-0.7,1c-0.3,0.1-0.5-0.3-0.6-0.5
			c-0.6-2.5-2.4-3.9-4.6-4.9C61.1,32,61.1,31.9,61,31.8z"/>
		<path class="st1" d="M68.1,37.9c0.6-2.3-0.2-4.2-1.8-5.8c-0.5-0.5-0.4-0.9,0.4-0.9c1.4-0.1,2.6,0.7,2.7,2.1
			C69.5,34.9,70.1,36.8,68.1,37.9z"/>
		<path class="st1" d="M69.5,39c1.1-2,1.7-3.8,1-6c-0.1-0.2,0-0.5,0.2-0.6c0.2,0,0.5,0.1,0.8,0.2c1.6,0.9,1.3,4.5-0.5,5.6
			C70.5,38.6,70,38.8,69.5,39z"/>
	</g>
</g>
</svg>
